<svg xmlns="http://www.w3.org/2000/svg" viewBox="0 0 96 96" role="img" aria-labelledby="t d"><title id="t">EduSphere</title><desc id="d">Abstract EduSphere E and orbit mark</desc><defs><linearGradient id="g" x1="12" y1="12" x2="84" y2="84"><stop stop-color="#6c63ff"/><stop offset="1" stop-color="#19c7e8"/></linearGradient></defs><rect x="5" y="5" width="86" height="86" rx="26" fill="#0f172a"/><circle cx="48" cy="48" r="29" fill="url(#g)"/><ellipse cx="48" cy="48" rx="37" ry="14" fill="none" stroke="#7ee8ff" stroke-width="3" opacity=".85" transform="rotate(-28 48 48)"/><circle cx="79" cy="31" r="4" fill="#fff" opacity=".95"/><path d="M35 33h28a6 6 0 0 1 0 12H45v5h16a6 6 0 0 1 0 12H35a5 5 0 0 1-5-5V38a5 5 0 0 1 5-5Z" fill="#fff" opacity=".98"/><path d="M45 45v5h16" fill="none" stroke="#4f55d9" stroke-width="4" stroke-linecap="round"/></svg>